<svg width="120" height="20" viewBox="0 0 120 20" fill="none" xmlns="http://www.w3.org/2000/svg">
<path d="M14.0027 0.327998C10.134 0.325331 6.09832 1.21333 2.02274 2.36465C1.5056 2.47132 0.999584 2.81532 0.733814 3.24198C0.488336 3.64331 0.398655 4.04664 0.322066 4.47131C-0.0739715 6.7293 -0.0255306 8.94795 0.0562953 11.4033C0.0739697 11.9659 0.158414 12.6353 0.414365 13.0393C0.685373 13.4479 1.14556 13.7079 1.6974 13.7939C2.40634 13.9033 3.11135 13.9873 3.81767 14.0626L3.66187 18.4999C3.63569 18.8512 3.8072 19.1459 4.01732 19.3152C4.20651 19.4606 4.41664 19.5259 4.63069 19.5419C5.06011 19.5752 5.56678 19.3852 5.81749 18.9012C6.91724 16.7446 7.60719 15.7946 8.98056 14.3613C12.5678 14.4533 15.6975 14.2499 19.2396 13.9813C20.4925 13.9506 21.3539 12.9059 21.5818 12.0726C22.2593 9.91395 22.3666 7.24996 22.438 4.55464C22.4687 3.48665 22.1054 2.43999 21.4613 1.88532C20.8479 1.37999 20.1089 1.19799 19.4287 1.01066C17.5415 0.57533 15.6549 0.341331 14.0027 0.327998ZM19.1577 2.01532C19.8379 2.20332 20.4388 2.38532 20.8139 2.69799C21.4462 3.37998 21.4253 3.83598 21.4181 4.57264C21.3461 7.18463 21.2237 9.72128 20.643 11.6433C20.3923 12.3593 19.9603 12.8699 19.1374 12.9453C15.5266 13.2186 12.3943 13.4299 8.76585 13.3226C8.69545 13.3205 8.62536 13.333 8.55985 13.3593C8.49435 13.3857 8.43481 13.4254 8.38486 13.4759C6.86028 15.0439 6.08065 16.1359 4.91741 18.4139C4.89123 18.4659 4.83231 18.4972 4.75899 18.5026C4.71317 18.4999 4.69223 18.4606 4.68961 18.4272L4.8454 13.6139C4.84595 13.484 4.80011 13.3582 4.71642 13.2601C4.63273 13.162 4.51688 13.0982 4.39045 13.0806C3.54316 12.9975 2.6982 12.8915 1.85647 12.7626C1.49316 12.7079 1.36027 12.6066 1.26077 12.4559C1.08665 12.0339 1.08927 11.7733 1.07683 11.3693C0.994348 8.93195 0.956381 6.80463 1.32165 4.68731C1.35766 4.37264 1.47287 4.05198 1.59528 3.78665C1.79821 3.46331 2.10718 3.41665 2.41877 3.32798C6.40271 2.20799 10.3002 1.36999 13.9719 1.36733C15.7721 1.43199 17.6593 1.61732 19.1577 2.01532ZM5.39527 6.1433C4.8454 6.81263 4.89908 7.72129 5.32327 8.33062C5.54583 8.65062 5.89147 8.90595 6.31107 8.96395C6.85832 9.01062 7.20592 8.78395 7.57904 8.52595C8.25656 7.92729 8.3253 6.87996 7.80946 6.12263C7.68471 5.93743 7.51957 5.78413 7.32697 5.67472C7.13437 5.56531 6.91953 5.50276 6.69925 5.49197C6.11141 5.4973 5.71276 5.7633 5.39527 6.1433ZM11.3326 5.59664C10.786 5.61464 10.3435 5.99997 10.0724 6.41663C9.76478 6.88996 9.58411 7.48663 9.83417 8.07262C10.3153 9.19528 11.9773 9.18195 12.6398 8.03929C12.9435 7.51263 12.867 6.91396 12.6398 6.48197C12.412 6.04663 12.069 5.69264 11.5708 5.61197C11.4921 5.59923 11.4123 5.59409 11.3326 5.59664ZM16.1531 5.70064C15.9816 5.69618 15.8102 5.71547 15.6438 5.75797C14.9866 5.93797 14.4269 6.6273 14.5113 7.51063C14.5545 7.95596 14.7542 8.39062 15.1175 8.68729C15.4802 8.98728 16.0045 9.11995 16.5596 9.00528C17.1959 8.87195 17.5926 8.34862 17.7228 7.84396C17.8557 7.33863 17.823 6.8253 17.516 6.40863C17.3569 6.19255 17.1514 6.0164 16.9151 5.89369C16.6789 5.77097 16.4182 5.70493 16.1531 5.70064ZM6.65539 6.52863C6.77584 6.5313 6.87272 6.56996 6.97222 6.71596C7.19479 7.04396 7.13326 7.53929 6.90873 7.73929C6.68616 7.93729 6.54542 7.95596 6.44592 7.94262C6.34838 7.92729 6.24888 7.85929 6.1592 7.73196C5.99031 7.48663 5.93925 7.09129 6.16444 6.8073C6.28227 6.64596 6.50221 6.54396 6.65539 6.52863ZM11.4039 6.6433C11.4216 6.64596 11.6363 6.7733 11.7391 6.96863C11.8412 7.16396 11.8589 7.34396 11.762 7.51063C11.4726 8.01062 10.8586 7.87462 10.767 7.65863C10.731 7.57529 10.7572 7.24196 10.9254 6.98463C11.0943 6.72396 11.3038 6.6273 11.4033 6.6433H11.4039ZM16.6945 7.02329C16.7252 7.06796 16.8018 7.35129 16.7429 7.57529C16.684 7.80196 16.5871 7.93996 16.3514 7.98929C16.0503 8.05462 15.8814 7.98929 15.7531 7.88529C15.6281 7.78129 15.541 7.60396 15.5234 7.41396C15.4775 6.9453 15.6432 6.83596 15.907 6.7653C16.2113 6.6873 16.5563 6.82263 16.6945 7.02329ZM28.8512 2.42732C28.8586 2.29529 28.9091 2.16955 28.9945 2.06999C29.0371 2.01808 29.0909 1.97679 29.1516 1.94929C29.2123 1.92178 29.2783 1.9088 29.3447 1.91132H32.7638C32.879 1.91132 32.9994 1.96066 33.1218 2.05732C33.1791 2.09972 33.2255 2.1554 33.2574 2.21974C33.2893 2.28409 33.3056 2.35525 33.3051 2.42732V7.98462H39.0264V2.42732C39.0259 2.35838 39.0391 2.29005 39.0652 2.22643C39.0913 2.16281 39.1297 2.10521 39.1782 2.05708C39.2267 2.00896 39.2842 1.9713 39.3473 1.94637C39.4104 1.92144 39.4778 1.90974 39.5455 1.91199H42.9174C43.0712 1.91199 43.2041 1.95066 43.3193 2.02866C43.4345 2.10666 43.4928 2.23199 43.4928 2.40332V18.8046C43.4928 18.9766 43.4417 19.1046 43.3422 19.1899C43.2427 19.2759 43.1118 19.3199 42.9508 19.3199H39.5448C39.4081 19.3254 39.2742 19.2791 39.1691 19.1899C39.0742 19.1039 39.0257 18.9766 39.0257 18.8046V12.1459H33.3058V18.8046C33.3058 18.9686 33.2547 19.0966 33.15 19.1846C33.0472 19.2759 32.9071 19.3199 32.7304 19.3199H29.3447C29.0227 19.3199 28.859 19.1666 28.8512 18.8619V2.42732ZM60.3443 19.1199C60.2536 19.2008 60.1445 19.2572 60.0268 19.2839C59.9227 19.3067 59.8165 19.3188 59.71 19.3199H57.9714C57.8332 19.3199 57.7154 19.2939 57.6159 19.2446C57.5184 19.1948 57.4321 19.1249 57.3626 19.0392C57.2913 18.9498 57.2326 18.8506 57.1885 18.7446C57.1421 18.6347 57.1036 18.5215 57.0733 18.4059L56.7178 16.9059C56.6032 17.1486 56.4344 17.4219 56.217 17.7319C55.9794 18.0584 55.6987 18.35 55.3831 18.5986C55.0157 18.8855 54.6081 19.1147 54.174 19.2786C53.706 19.4632 53.1692 19.5546 52.563 19.5546C51.6884 19.5546 50.8938 19.3826 50.1802 19.0392C49.481 18.7065 48.8586 18.2272 48.3539 17.6326C47.8531 17.0392 47.4636 16.3439 47.188 15.5526C46.9081 14.7363 46.768 13.8772 46.7737 13.0126V5.33597C46.7737 5.03931 46.8352 4.81264 46.9635 4.66131C47.0879 4.50798 47.2908 4.43198 47.5664 4.43198H50.2261C50.5553 4.43198 50.7805 4.48931 50.9062 4.60131C51.0286 4.71597 51.0895 4.93464 51.0895 5.2653V12.8959C51.0895 13.2319 51.1641 13.5493 51.3121 13.8513C51.6156 14.4573 52.1217 14.9329 52.7391 15.1926C53.0513 15.3259 53.3682 15.3926 53.6909 15.3926C53.9665 15.3926 54.2532 15.3259 54.5471 15.1926C54.8437 15.0593 55.1147 14.8826 55.3654 14.6613C55.6135 14.4373 55.8203 14.1746 55.982 13.8746C56.1431 13.5726 56.2223 13.2546 56.2223 12.9193V5.2993C56.2223 5.16664 56.2478 5.03397 56.2962 4.90131C56.3393 4.77887 56.4178 4.67263 56.5214 4.59664C56.6209 4.53398 56.7158 4.48998 56.8029 4.46598C56.8919 4.44264 56.994 4.43264 57.1093 4.43264H59.71C60.0399 4.43264 60.2776 4.51264 60.4235 4.67731C60.5689 4.84131 60.6435 5.06264 60.6435 5.33597V18.4532C60.6435 18.6012 60.6101 18.7366 60.5433 18.8619C60.4827 18.9836 60.3897 19.0855 60.2749 19.1559L60.3443 19.1199ZM73.7075 17.5026C73.5 17.7132 73.2702 17.9399 73.0221 18.1826C72.7714 18.4246 72.4978 18.6512 72.1986 18.8619C71.8995 19.0726 71.5767 19.2472 71.2318 19.3852C70.8748 19.5228 70.496 19.5917 70.1143 19.5886C69.0716 19.5886 68.1099 19.3906 67.2328 18.9919C66.3756 18.6092 65.6038 18.0528 64.9645 17.3566C64.3302 16.6639 63.8373 15.8486 63.4786 14.9113C63.1238 13.9739 62.9444 12.9659 62.9444 11.8879C62.9444 10.8019 63.1238 9.79128 63.4792 8.85662C63.8367 7.92462 64.3302 7.11196 64.9652 6.4193C65.6032 5.7232 66.375 5.16834 67.2328 4.78931C68.1099 4.39598 69.0716 4.19798 70.1143 4.19798C70.5082 4.19324 70.9 4.25659 71.273 4.38531C71.6094 4.50377 71.9298 4.66481 72.2268 4.86464C72.5154 5.06264 72.7792 5.2813 73.0221 5.52864C73.2623 5.7733 73.4928 6.0153 73.7075 6.24997V0.889995C73.7075 0.640663 73.7815 0.429998 73.93 0.257999C74.0806 0.0859996 74.3058 0 74.6043 0H77.1952C77.2947 0 77.3995 0.0233329 77.5094 0.0653327C77.622 0.109332 77.7241 0.169332 77.8164 0.247332C77.9081 0.325331 77.9827 0.419331 78.039 0.528664C78.0979 0.637997 78.1261 0.757996 78.1261 0.890661V18.4166C78.1261 19.0179 77.8165 19.3199 77.1952 19.3199H74.9368C74.7837 19.3199 74.6658 19.2999 74.582 19.2599C74.4983 19.2229 74.4251 19.1648 74.3693 19.0912C74.304 19.0058 74.2515 18.911 74.2135 18.8099C74.1677 18.6979 74.1088 18.5652 74.0394 18.4166L73.7075 17.5026ZM67.0868 11.8879C67.0868 12.4033 67.166 12.8853 67.3251 13.3359C67.4708 13.7664 67.6994 14.163 67.9973 14.5026C68.2886 14.8306 68.6389 15.0913 69.0513 15.2813C69.4597 15.4739 69.9153 15.5679 70.4135 15.5679C70.9045 15.5679 71.3673 15.4793 71.8019 15.2993C72.234 15.1193 72.613 14.8726 72.9344 14.5546C73.2591 14.2332 73.5228 13.8535 73.7121 13.4346C73.9081 12.9997 74.0192 12.5301 74.0394 12.0519V11.8879C74.0394 11.3879 73.9477 10.9113 73.7638 10.4579C73.5851 10.014 73.3257 9.60845 72.9992 9.26262C72.6711 8.91763 72.2802 8.64094 71.8484 8.44795C71.3964 8.2456 70.9073 8.14334 70.4135 8.14796C69.9153 8.14796 69.4597 8.24796 69.0506 8.44795C68.647 8.64099 68.288 8.91886 67.9973 9.26328C67.7011 9.61466 67.473 10.02 67.3251 10.4579C67.1653 10.9171 67.0847 11.4009 67.0868 11.8879ZM91.4892 17.5026C91.2817 17.7132 91.0546 17.9399 90.8039 18.1826C90.5551 18.4246 90.2821 18.6512 89.983 18.8619C89.6838 19.0726 89.3611 19.2472 89.0142 19.3852C88.6579 19.5229 88.2797 19.5918 87.8987 19.5886C86.8559 19.5886 85.8943 19.3906 85.0145 18.9919C84.1587 18.6084 83.3882 18.0521 82.7496 17.3566C82.1146 16.6639 81.6191 15.8486 81.2636 14.9113C80.9055 13.9739 80.7288 12.9659 80.7288 11.8879C80.7288 10.8019 80.9055 9.79128 81.2636 8.85662C81.601 7.95473 82.1055 7.12729 82.7496 6.4193C83.3871 5.72384 84.158 5.16906 85.0145 4.78931C85.8943 4.39598 86.8559 4.19798 87.8987 4.19798C88.3209 4.19798 88.7072 4.26064 89.0547 4.38531C89.3917 4.50381 89.7128 4.66484 90.0105 4.86464C90.2972 5.06264 90.5636 5.2813 90.8039 5.52864C91.0461 5.7733 91.2745 6.0153 91.4892 6.24997V0.889995C91.4892 0.640663 91.5658 0.429998 91.7138 0.257999C91.8643 0.0859996 92.0869 0 92.3867 0H94.977C95.0765 0 95.1812 0.0233329 95.2938 0.0653327C95.4038 0.109332 95.5059 0.169332 95.5982 0.247332C95.6898 0.325331 95.7671 0.419331 95.8234 0.528664C95.8823 0.637997 95.9105 0.757996 95.9105 0.890661V18.4166C95.9105 19.0179 95.5982 19.3199 94.977 19.3199H92.7212C92.568 19.3199 92.4482 19.2999 92.3638 19.2599C92.2804 19.2222 92.2074 19.1643 92.151 19.0912C92.0866 19.0052 92.0342 18.9105 91.9952 18.8099C91.9494 18.6979 91.8931 18.5652 91.8237 18.4166L91.4892 17.5026ZM84.8712 11.8879C84.8712 12.4033 84.9504 12.8853 85.1068 13.3359C85.2543 13.7661 85.4834 14.1625 85.7811 14.5026C86.073 14.8306 86.4232 15.0913 86.8324 15.2813C87.2448 15.4739 87.6997 15.5679 88.1979 15.5679C88.6728 15.5715 89.1439 15.4802 89.5843 15.2993C90.0065 15.1282 90.392 14.8753 90.7194 14.5546C91.0439 14.2332 91.3073 13.8535 91.4964 13.4346C91.6924 12.9997 91.8036 12.5301 91.8237 12.0519V11.8879C91.8241 10.908 91.4499 9.96639 90.7803 9.26262C90.4533 8.91656 90.0625 8.6397 89.6301 8.44795C89.1791 8.24537 88.6908 8.14309 88.1979 8.14796C87.6997 8.14796 87.2441 8.24796 86.8324 8.44795C86.4299 8.64173 86.0719 8.91951 85.7817 9.26328C85.4856 9.61519 85.2567 10.0204 85.1068 10.4579C84.9492 10.9175 84.8695 11.4011 84.8712 11.8879ZM98.9714 0.903328C98.9714 0.653329 99.0323 0.442664 99.1547 0.270665C99.2778 0.0986662 99.4898 0.0133329 99.7897 0.0133329H102.61C102.686 0.0133329 102.766 0.0333329 102.85 0.0779993C102.935 0.119999 103.014 0.179332 103.086 0.257999C103.16 0.335998 103.221 0.429998 103.269 0.53933C103.321 0.648663 103.346 0.770662 103.346 0.903328V18.4166C103.346 18.7132 103.262 18.9399 103.098 19.0912C102.932 19.2446 102.72 19.3199 102.459 19.3199H99.789C99.4898 19.3199 99.2784 19.2446 99.1553 19.0912C99.0323 18.9399 98.9707 18.7132 98.9707 18.4166L98.9714 0.903328ZM118.354 17.5392C117.687 18.167 116.915 18.6686 116.076 19.0206C115.231 19.3772 114.336 19.5546 113.393 19.5546C112.342 19.5546 111.35 19.3592 110.414 18.9686C109.498 18.5925 108.661 18.041 107.949 17.3439C107.239 16.6478 106.669 15.8183 106.269 14.9013C105.855 13.9633 105.647 12.9426 105.647 11.8413C105.647 11.1533 105.73 10.4866 105.896 9.84128C106.059 9.19795 106.294 8.59395 106.596 8.03129C106.9 7.46891 107.271 6.94677 107.701 6.47663C108.573 5.52812 109.681 4.83791 110.908 4.47931C111.536 4.29131 112.201 4.19798 112.899 4.19798C113.536 4.19798 114.152 4.28398 114.753 4.45598C115.934 4.79274 117.011 5.42983 117.883 6.3073C118.315 6.7379 118.694 7.22057 119.011 7.74462C119.325 8.26262 119.568 8.81795 119.742 9.40862C119.914 9.99728 120 10.6066 120 11.2319C120 11.6379 119.995 11.9686 119.982 12.2266C119.972 12.4846 119.914 12.6899 119.806 12.8439C119.698 12.9946 119.52 13.1013 119.269 13.1586C119.021 13.2186 118.653 13.2473 118.169 13.2473H109.882C109.959 13.7473 110.115 14.1666 110.35 14.5026C110.583 14.8386 110.854 15.1066 111.16 15.3046C111.468 15.5046 111.795 15.6459 112.14 15.7312C112.459 15.8144 112.787 15.8583 113.117 15.8619C113.393 15.8619 113.676 15.8332 113.968 15.7732C114.255 15.7174 114.538 15.6392 114.814 15.5393C115.073 15.4483 115.324 15.335 115.564 15.2006C115.789 15.0699 115.973 14.9346 116.111 14.7939C116.233 14.6926 116.339 14.6173 116.425 14.5673C116.511 14.5161 116.609 14.4891 116.709 14.4893C116.809 14.4893 116.912 14.5259 117.014 14.5959C117.118 14.6666 117.234 14.7679 117.364 14.9013L118.583 16.3072C118.669 16.4086 118.722 16.4999 118.744 16.5832C118.768 16.6639 118.78 16.7499 118.78 16.8359C118.783 16.9811 118.738 17.123 118.653 17.2392C118.568 17.3512 118.469 17.4526 118.354 17.5392ZM112.818 7.77329C112.518 7.77329 112.229 7.83329 111.948 7.95596C111.669 8.07596 111.406 8.23662 111.16 8.43995C110.914 8.64465 110.692 8.87727 110.498 9.13328C110.312 9.37714 110.152 9.64064 110.021 9.91928H115.904C115.749 9.6257 115.574 9.34367 115.38 9.07528C115.194 8.82084 114.978 8.59164 114.735 8.39329C114.486 8.19497 114.206 8.04081 113.907 7.93729C113.595 7.82796 113.232 7.77329 112.818 7.77329Z" fill="white"/>
</svg>
